<mxfile host="app.diagrams.net" agent="Mozilla/5.0 (Windows NT 10.0; Win64; x64) AppleWebKit/537.36 (KHTML, like Gecko) Chrome/139.0.0.0 Safari/537.36" version="27.1.6">
  <diagram name="Page-1" id="xGW_SXQ1OwAvwWTn8Y70">
    <mxGraphModel dx="2597" dy="1107" grid="1" gridSize="10" guides="1" tooltips="1" connect="1" arrows="1" fold="1" page="1" pageScale="1" pageWidth="850" pageHeight="1100" math="0" shadow="0">
      <root>
        <mxCell id="0" />
        <mxCell id="1" parent="0" />
        <mxCell id="dwKNKp3rEFY6qgJxP6_y-12" value="" style="rounded=0;whiteSpace=wrap;html=1;strokeColor=none;" vertex="1" parent="1">
          <mxGeometry x="-490" width="1520" height="990" as="geometry" />
        </mxCell>
        <mxCell id="dwKNKp3rEFY6qgJxP6_y-1" value="" style="rounded=0;whiteSpace=wrap;html=1;strokeWidth=4;" vertex="1" parent="1">
          <mxGeometry x="320" y="110" width="280" height="280" as="geometry" />
        </mxCell>
        <mxCell id="dwKNKp3rEFY6qgJxP6_y-2" value="" style="rounded=0;whiteSpace=wrap;html=1;strokeWidth=4;" vertex="1" parent="1">
          <mxGeometry x="400" y="180" width="280" height="280" as="geometry" />
        </mxCell>
        <mxCell id="dwKNKp3rEFY6qgJxP6_y-3" value="" style="rounded=0;whiteSpace=wrap;html=1;strokeWidth=4;fillColor=#008a00;fontColor=#ffffff;strokeColor=#005700;" vertex="1" parent="1">
          <mxGeometry x="320" y="520" width="280" height="280" as="geometry" />
        </mxCell>
        <mxCell id="dwKNKp3rEFY6qgJxP6_y-4" value="" style="rounded=0;whiteSpace=wrap;html=1;strokeWidth=4;fillColor=#008a00;fontColor=#ffffff;strokeColor=#005700;" vertex="1" parent="1">
          <mxGeometry x="400" y="590" width="280" height="280" as="geometry" />
        </mxCell>
        <mxCell id="dwKNKp3rEFY6qgJxP6_y-5" value="" style="endArrow=none;html=1;rounded=0;strokeWidth=5;" edge="1" parent="1">
          <mxGeometry width="50" height="50" relative="1" as="geometry">
            <mxPoint x="-120" y="490" as="sourcePoint" />
            <mxPoint x="720" y="490" as="targetPoint" />
          </mxGeometry>
        </mxCell>
        <mxCell id="dwKNKp3rEFY6qgJxP6_y-6" value="&lt;font style=&quot;font-size: 47px;&quot;&gt;IoU =&amp;nbsp;&lt;/font&gt;" style="text;html=1;align=center;verticalAlign=middle;whiteSpace=wrap;rounded=0;fontFamily=Public Sans;fontSource=https%3A%2F%2Ffonts.googleapis.com%2Fcss%3Ffamily%3DPublic%2BSans;" vertex="1" parent="1">
          <mxGeometry x="-300" y="470" width="170" height="30" as="geometry" />
        </mxCell>
        <mxCell id="dwKNKp3rEFY6qgJxP6_y-9" value="&lt;font style=&quot;font-size: 47px;&quot;&gt;Area of Overlap&lt;/font&gt;" style="text;html=1;align=center;verticalAlign=middle;whiteSpace=wrap;rounded=0;fontFamily=Public Sans;fontSource=https%3A%2F%2Ffonts.googleapis.com%2Fcss%3Ffamily%3DPublic%2BSans;" vertex="1" parent="1">
          <mxGeometry x="-120" y="440" width="430" height="30" as="geometry" />
        </mxCell>
        <mxCell id="dwKNKp3rEFY6qgJxP6_y-10" value="&lt;font style=&quot;font-size: 47px;&quot;&gt;Area of Union&lt;/font&gt;" style="text;html=1;align=center;verticalAlign=middle;whiteSpace=wrap;rounded=0;fontFamily=Public Sans;fontSource=https%3A%2F%2Ffonts.googleapis.com%2Fcss%3Ffamily%3DPublic%2BSans;" vertex="1" parent="1">
          <mxGeometry x="-120" y="510" width="430" height="30" as="geometry" />
        </mxCell>
        <mxCell id="dwKNKp3rEFY6qgJxP6_y-11" value="" style="rounded=0;whiteSpace=wrap;html=1;strokeWidth=4;fillColor=#008a00;fontColor=#ffffff;strokeColor=#005700;" vertex="1" parent="1">
          <mxGeometry x="400" y="180" width="200" height="210" as="geometry" />
        </mxCell>
      </root>
    </mxGraphModel>
  </diagram>
</mxfile>
